<?xml version="1.0" standalone="no"?>
<!DOCTYPE svg PUBLIC "-//W3C//DTD SVG 20010904//EN"
 "http://www.w3.org/TR/2001/REC-SVG-20010904/DTD/svg10.dtd">
<svg version="1.0" xmlns="http://www.w3.org/2000/svg"
 width="1890.000000pt" height="1417.000000pt" viewBox="0 0 1890.000000 1417.000000"
 preserveAspectRatio="xMidYMid meet">

<g transform="translate(0.000000,1417.000000) scale(0.100000,-0.100000)"
fill="#000000" stroke="none">
<path d="M6580 12919 c-228 -26 -431 -84 -625 -178 -578 -281 -964 -831 -1034
-1473 -73 -667 244 -1341 808 -1720 256 -171 537 -271 866 -308 225 -25 503 9
747 90 591 197 1052 695 1203 1300 74 293 74 607 0 900 -151 605 -612 1103
-1203 1300 -245 82 -532 115 -762 89z m382 -294 c344 -45 650 -198 902 -451
533 -536 602 -1379 163 -1994 -219 -307 -534 -522 -897 -614 -617 -156 -1278
94 -1652 624 -277 393 -354 913 -204 1373 190 580 718 1006 1326 1070 89 9
259 6 362 -8z"/>
<path d="M6690 11932 c-23 -11 -43 -33 -57 -62 -22 -43 -23 -53 -23 -337 l0
-292 -302 -3 c-283 -3 -305 -4 -338 -23 -67 -40 -90 -132 -47 -196 44 -67 57
-69 390 -69 l297 0 0 -287 c0 -165 4 -304 10 -325 6 -20 26 -50 46 -67 29 -26
43 -31 85 -31 62 0 100 21 128 70 20 36 21 52 21 339 l0 301 301 0 c287 0 303
1 339 21 47 26 70 66 70 119 0 52 -20 92 -62 122 -33 23 -37 23 -340 26 l-308
3 0 297 c0 263 -2 301 -18 332 -36 72 -119 99 -192 62z"/>
<path d="M9586 11060 c-32 -21 -57 -55 -87 -120 -50 -107 -69 -197 -69 -319 0
-160 37 -260 150 -399 l50 -63 -28 -42 c-86 -125 -150 -298 -177 -481 -19
-125 -19 -207 0 -323 54 -331 247 -634 530 -830 30 -21 54 -42 55 -46 0 -4
-38 -67 -85 -140 -46 -73 -129 -202 -183 -287 l-99 -155 -160 -3 -160 -2 -193
280 c-204 297 -256 356 -353 403 -89 44 -145 57 -248 57 -105 0 -178 -18 -263
-66 -66 -37 -155 -127 -194 -195 -38 -67 -72 -191 -72 -264 0 -64 31 -188 60
-241 23 -41 33 -55 227 -329 66 -93 177 -251 247 -350 159 -225 199 -271 270
-314 95 -57 130 -62 466 -69 l305 -7 3 -280 4 -281 -364 -359 c-401 -397 -423
-425 -477 -599 l-25 -81 -6 -693 -5 -694 -54 -19 c-312 -109 -562 -385 -616
-679 -14 -77 19 -71 -323 -68 l-307 3 -7 110 c-20 308 -164 585 -401 773 -143
114 -282 174 -504 218 l-23 4 0 1330 c0 732 3 1330 6 1330 3 0 66 -34 140 -76
235 -134 332 -160 490 -131 223 41 395 196 448 403 49 191 -23 403 -178 523
-29 23 -186 116 -347 207 -162 92 -314 178 -339 192 -25 14 -220 125 -435 247
-214 122 -534 303 -711 403 -176 100 -347 192 -380 203 -75 27 -204 36 -286
20 -81 -16 -209 -78 -271 -132 -55 -48 -113 -130 -147 -209 -32 -76 -40 -244
-15 -322 40 -122 112 -221 208 -286 23 -16 184 -109 357 -207 173 -98 323
-185 333 -193 16 -14 17 -63 17 -751 0 -822 -4 -780 70 -829 66 -45 164 -16
202 59 17 31 18 85 18 687 0 450 3 652 11 652 5 0 56 -26 112 -58 56 -32 168
-96 250 -141 l147 -83 -2 -1415 -3 -1414 -245 0 c-135 0 -251 1 -257 1 -10 0
-13 130 -15 578 l-3 578 -25 37 c-46 67 -136 83 -202 35 -59 -42 -58 -25 -58
-648 0 -447 -3 -572 -12 -575 -7 -3 -139 -6 -293 -7 -278 -3 -280 -3 -335 -29
-68 -32 -112 -68 -150 -125 -63 -90 -61 -44 -58 -1340 l3 -1179 28 -57 c37
-75 98 -135 174 -170 l63 -28 4445 0 c3325 0 4457 3 4492 12 186 44 285 88
404 178 112 84 213 213 278 355 74 159 93 396 46 579 -80 319 -328 569 -650
658 -74 20 -108 22 -427 26 -192 2 -348 7 -348 11 0 5 9 30 19 57 11 27 33 86
50 132 17 45 45 119 62 165 17 45 39 105 49 132 10 28 59 159 109 291 130 349
139 395 101 497 -22 59 -74 114 -135 145 -75 37 -593 221 -1032 367 -241 81
-443 152 -450 158 -6 7 -32 120 -58 252 -25 132 -59 305 -75 385 -16 80 -45
231 -66 337 l-37 192 17 93 c16 87 25 132 46 233 5 22 28 137 51 255 23 118
45 218 48 223 9 9 113 -23 123 -38 4 -5 8 -159 8 -340 0 -264 3 -343 15 -390
59 -225 274 -394 502 -395 87 0 157 16 238 56 131 64 231 177 277 314 21 63
22 82 26 594 4 560 -1 647 -40 739 -44 107 -132 209 -230 267 -34 20 -218 86
-558 200 -395 132 -506 173 -522 188 -22 22 -228 322 -228 331 0 5 33 36 74
69 111 91 208 214 289 365 151 282 221 799 152 1125 -70 335 -263 591 -565
750 -199 105 -343 132 -699 132 -376 0 -577 41 -855 176 -40 19 -105 16 -140
-6z m260 -360 c125 -43 139 -47 229 -65 129 -27 355 -44 580 -45 235 -1 301
-10 417 -59 253 -106 413 -293 478 -556 24 -100 39 -369 22 -394 -12 -18 -69
28 -232 184 -125 121 -167 152 -280 212 -95 50 -191 79 -305 93 -159 19 -238
31 -310 46 -443 91 -725 283 -725 494 0 75 9 120 25 120 7 0 52 -14 101 -30z
m120 -744 c114 -48 259 -93 389 -121 107 -23 171 -33 345 -55 112 -15 169 -32
244 -74 131 -75 247 -190 351 -351 59 -90 155 -274 155 -296 0 -27 -101 -179
-162 -245 -86 -91 -175 -153 -288 -198 -57 -23 -94 -33 -200 -51 -297 -51
-584 47 -816 279 -251 251 -336 582 -232 906 26 82 106 240 122 240 6 0 48
-15 92 -34z m-4871 -1504 c17 -8 163 -90 325 -182 162 -92 318 -180 345 -195
28 -16 241 -137 475 -270 403 -229 453 -258 568 -321 200 -112 381 -219 400
-237 62 -57 82 -178 43 -255 -23 -44 -73 -93 -120 -117 -50 -25 -140 -31 -198
-12 -26 9 -250 131 -498 272 -247 141 -479 273 -515 292 -36 20 -256 145 -490
278 -493 280 -512 291 -565 319 -87 46 -145 130 -145 211 0 107 93 212 210
236 46 10 128 0 165 -19z m5961 -140 c17 -11 134 -181 134 -195 0 -7 -26 -23
-58 -37 -78 -34 -188 -143 -231 -230 -90 -185 -74 -376 45 -546 47 -67 120
-131 187 -163 23 -11 98 -40 167 -64 112 -39 125 -46 127 -68 1 -13 -30 -184
-70 -379 l-72 -355 -705 0 -705 0 -3 694 -2 694 83 131 c327 515 329 518 351
513 149 -36 222 -47 328 -47 130 0 233 12 335 39 37 10 70 19 73 19 3 1 10 -2
16 -6z m-2453 -23 c21 -5 53 -24 73 -41 38 -34 44 -42 286 -393 91 -132 175
-248 186 -258 41 -37 91 -46 260 -47 l162 0 0 -245 0 -245 -287 0 c-332 0
-319 -3 -395 97 -45 59 -388 543 -510 721 -83 120 -93 162 -66 267 12 48 88
126 138 142 46 14 106 15 153 2z m3132 -551 c154 -53 381 -131 505 -173 260
-89 267 -92 309 -140 63 -72 61 -55 61 -645 0 -591 2 -573 -62 -646 -45 -51
-99 -74 -176 -74 -99 0 -169 46 -211 140 -20 43 -21 64 -21 426 0 416 -1 423
-57 477 -33 30 -30 29 -442 169 -400 135 -394 133 -435 178 -46 52 -66 100
-66 164 1 86 49 163 130 207 27 15 51 18 110 16 64 -3 115 -17 355 -99z m-525
-1771 c0 -28 -75 -166 -128 -237 -100 -134 -214 -236 -397 -357 -114 -75 -167
-106 -510 -296 -424 -235 -464 -259 -515 -304 -86 -77 -84 -69 -90 -553 l-5
-425 -275 0 -275 0 0 675 0 675 34 69 c40 82 95 141 478 512 l261 254 711 0
c571 0 711 -3 711 -13z m154 -399 c3 -13 24 -120 46 -238 88 -459 98 -500 133
-547 61 -83 90 -96 552 -248 182 -60 335 -113 342 -119 9 -8 -10 -66 -76 -236
-48 -124 -95 -246 -105 -272 -10 -27 -21 -48 -25 -48 -6 0 -278 93 -836 285
-154 53 -326 112 -383 131 -124 42 -165 65 -191 108 -52 83 -273 547 -268 560
3 6 17 18 33 26 61 30 232 135 309 188 159 111 356 293 421 391 30 47 42 51
48 19z m-994 -940 c191 -396 193 -401 252 -464 62 -65 136 -111 246 -149 155
-54 603 -208 682 -235 252 -85 582 -200 590 -205 5 -3 6 -37 3 -75 -10 -120
18 -306 74 -482 5 -17 -18 -18 -386 -18 -375 0 -394 -1 -432 -20 -57 -29 -81
-72 -76 -136 4 -59 28 -96 77 -121 33 -17 107 -18 1170 -23 1073 -5 1138 -6
1185 -24 187 -69 331 -209 390 -381 48 -137 45 -273 -8 -423 -59 -167 -229
-317 -419 -369 -59 -17 -241 -18 -3188 -18 l-3125 0 0 230 0 230 3115 5 c2982
5 3117 6 3143 23 88 57 88 187 0 244 -26 17 -161 18 -3143 23 l-3115 5 -3 228
-2 227 1677 0 c1159 0 1690 3 1716 11 22 6 55 25 74 43 31 28 37 40 40 87 3
42 0 61 -16 86 -44 70 -24 67 -546 73 l-470 5 -7 760 c-4 418 -5 770 -3 782 3
14 32 36 82 66 197 113 328 187 334 187 3 0 43 -78 89 -172z m2425 -333 c22
-7 78 -28 125 -45 47 -18 110 -41 140 -52 30 -11 59 -23 64 -28 8 -8 -10 -68
-58 -191 -26 -67 -100 -265 -236 -634 -44 -121 -91 -247 -104 -280 l-24 -60
-55 -3 c-47 -3 -59 1 -87 25 -38 31 -80 119 -101 208 -9 37 -14 115 -14 205 0
139 1 148 32 225 29 74 97 250 196 505 61 159 52 150 122 125z m-6250 -498
c209 -62 387 -211 480 -402 82 -168 78 -115 82 -1059 3 -682 2 -841 -9 -847
-7 -5 -518 -9 -1135 -9 -1006 0 -1123 2 -1137 16 -14 14 -16 133 -16 1158 0
889 3 1145 12 1154 10 10 196 12 838 10 757 -3 830 -5 885 -21z m3023 -550 l2
-247 -622 2 -623 3 3 30 c2 17 21 67 43 112 77 160 267 308 443 343 23 4 201
7 396 6 l355 -1 3 -248z"/>
<path d="M5610 3119 c-33 -6 -55 -19 -82 -48 -33 -35 -38 -46 -38 -89 0 -60
30 -109 80 -134 49 -25 359 -26 420 -2 132 53 111 243 -31 273 -58 13 -284 13
-349 0z"/>
<path d="M5573 2410 c-54 -24 -83 -70 -83 -130 0 -60 29 -106 83 -130 36 -17
66 -20 207 -20 152 0 169 2 210 23 55 28 81 63 87 118 6 57 -21 106 -73 136
-36 21 -51 23 -214 23 -151 0 -181 -3 -217 -20z"/>
</g>
</svg>
