<?xml version="1.0" standalone="no"?>
<!DOCTYPE svg PUBLIC "-//W3C//DTD SVG 20010904//EN"
 "http://www.w3.org/TR/2001/REC-SVG-20010904/DTD/svg10.dtd">
<svg version="1.0" xmlns="http://www.w3.org/2000/svg"
 width="512.000000pt" height="512.000000pt" viewBox="0 0 512.000000 512.000000"
 preserveAspectRatio="xMidYMid meet">

<g transform="translate(0.000000,512.000000) scale(0.100000,-0.100000)"
fill="#000000" stroke="none">
<path d="M1049 4430 c-102 -17 -208 -100 -252 -198 -15 -35 -22 -73 -25 -148
l-4 -101 -46 13 c-102 31 -209 4 -287 -72 -67 -65 -87 -118 -93 -241 l-5 -103
-137 0 c-76 0 -146 -3 -155 -6 -40 -16 -45 -51 -45 -338 l0 -275 24 -28 c24
-28 24 -28 169 -31 l144 -3 5 -97 c6 -113 28 -176 86 -235 61 -64 104 -81 202
-82 47 0 97 4 112 8 l26 9 4 -99 c4 -116 31 -186 98 -253 67 -67 138 -95 240
-95 71 0 94 4 140 26 70 33 136 99 169 169 26 55 26 56 29 353 l3 297 85 0 84
0 0 -147 c0 -282 17 -322 205 -513 l135 -136 0 -712 0 -712 85 0 85 0 0 746 0
746 -150 152 c-88 90 -156 168 -167 191 -16 35 -18 78 -21 343 l-3 302 256 0
c201 0 263 -3 290 -15 59 -24 70 -91 23 -135 -20 -18 -35 -20 -163 -20 -166 0
-201 -9 -221 -56 -17 -40 -19 -188 -3 -233 13 -37 32 -48 161 -90 53 -18 117
-46 142 -62 85 -57 169 -203 188 -326 6 -38 12 -74 14 -80 2 -9 28 -13 84 -13
l80 0 0 48 c0 110 -68 289 -150 399 -73 95 -163 155 -303 199 -31 10 -56 23
-54 28 2 7 54 13 129 16 126 5 126 5 180 43 l54 37 372 0 372 0 0 -176 c0
-103 -5 -192 -11 -215 -7 -21 -63 -106 -125 -190 l-114 -153 0 -743 0 -743 85
0 85 0 0 715 0 716 88 117 c112 149 117 158 142 231 17 52 20 85 20 251 l0
190 129 0 130 0 3 -297 c3 -297 3 -298 29 -353 33 -70 99 -136 169 -169 46
-22 69 -26 140 -26 102 0 173 28 240 95 67 67 94 137 98 253 l4 99 26 -9 c15
-4 65 -8 112 -8 98 1 141 18 202 82 58 59 80 122 86 235 l5 97 144 3 c145 3
145 3 169 31 l24 28 0 275 c0 287 -5 322 -45 338 -9 3 -79 6 -155 6 l-137 0
-5 103 c-6 123 -26 176 -93 241 -78 76 -185 103 -287 72 l-46 -13 -4 101 c-5
120 -24 171 -92 244 -150 160 -413 135 -531 -49 -49 -76 -55 -122 -55 -421 l0
-278 -170 0 -170 0 0 53 c-1 76 -16 133 -51 183 -73 106 -235 139 -341 69 -36
-24 -41 -25 -57 -11 -68 61 -235 61 -303 -1 -17 -15 -19 -15 -36 0 -68 62
-235 62 -304 1 -15 -15 -19 -14 -45 3 -49 33 -82 43 -144 43 -150 0 -245 -97
-256 -261 l-6 -79 -168 0 -169 0 0 278 c0 299 -6 345 -55 421 -72 113 -211
174 -346 151z m143 -186 c15 -8 40 -31 55 -51 l28 -36 3 -902 2 -901 -23 -44
c-27 -51 -90 -90 -147 -90 -57 0 -120 39 -147 90 l-23 43 0 889 c0 959 -2 926
53 976 54 50 133 60 199 26z m2898 1 c34 -17 66 -54 79 -88 8 -19 11 -312 11
-916 l0 -888 -23 -43 c-27 -51 -90 -90 -147 -90 -57 0 -120 39 -147 90 l-23
44 2 901 3 902 28 36 c54 72 139 92 217 52z m-3391 -423 c19 -10 43 -34 53
-53 17 -31 18 -68 18 -522 0 -533 0 -534 -58 -576 -40 -28 -104 -28 -144 0
-58 42 -58 43 -58 576 0 454 1 491 18 522 20 38 73 71 112 71 14 0 41 -8 59
-18z m3840 0 c19 -10 43 -34 53 -53 17 -31 18 -68 18 -522 0 -533 0 -534 -58
-576 -40 -28 -104 -28 -144 0 -58 42 -58 43 -58 576 0 454 1 491 18 522 20 38
73 71 112 71 14 0 41 -8 59 -18z m-2430 -98 c19 -24 21 -40 21 -186 0 -155 -1
-159 -25 -183 -31 -32 -75 -32 -112 -1 -28 24 -28 26 -31 157 -4 154 1 192 30
219 33 30 91 27 117 -6z m338 4 c22 -21 23 -27 23 -185 0 -161 0 -164 -25
-188 -31 -32 -75 -32 -112 -1 l-28 24 0 160 c0 156 1 161 24 186 31 33 85 35
118 4z m344 -4 c23 -25 24 -30 24 -186 l0 -160 -28 -24 c-37 -31 -81 -31 -112
1 -24 24 -25 27 -25 186 0 153 1 164 22 186 31 33 87 31 119 -3z m337 6 c29
-27 34 -65 30 -219 -3 -131 -3 -133 -31 -157 -37 -31 -81 -31 -112 1 -24 24
-25 28 -25 183 0 146 2 162 21 186 26 33 84 36 117 6z m-2788 -490 l0 -170
-85 0 -85 0 0 170 0 170 85 0 85 0 0 -170z m1454 148 c13 -52 10 -55 -59 -60
-98 -6 -109 -21 -113 -153 l-4 -105 -84 0 -84 0 0 170 0 170 169 0 c166 0 169
0 175 -22z m1876 -148 l0 -170 -555 0 c-536 0 -555 1 -555 19 0 10 -7 38 -15
62 -13 35 -13 45 -3 56 11 10 24 7 72 -17 81 -41 151 -41 231 -1 l57 29 55
-29 c148 -78 323 5 363 172 l12 49 169 0 169 0 0 -170z m1280 0 l0 -170 -85 0
-85 0 0 170 0 170 85 0 85 0 0 -170z"/>
</g>
</svg>
