<?xml version="1.0" standalone="no"?>
<!DOCTYPE svg PUBLIC "-//W3C//DTD SVG 20010904//EN"
 "http://www.w3.org/TR/2001/REC-SVG-20010904/DTD/svg10.dtd">
<svg version="1.0" xmlns="http://www.w3.org/2000/svg"
 width="512.000000pt" height="512.000000pt" viewBox="0 0 512.000000 512.000000"
 preserveAspectRatio="xMidYMid meet">

<g transform="translate(0.000000,512.000000) scale(0.100000,-0.100000)"
fill="#000000" stroke="none">
<path d="M316 4804 c-14 -14 -16 -231 -16 -2244 0 -2013 2 -2230 16 -2244 13
-14 52 -16 275 -16 160 0 268 4 280 10 19 10 19 34 19 1160 l0 1150 185 0 185
0 0 -229 c0 -244 5 -277 49 -324 56 -61 -69 -57 1733 -57 l1653 0 39 23 c25
14 48 39 63 66 l23 44 0 1269 c0 1055 -2 1274 -14 1301 -16 39 -61 82 -99 96
-20 8 -534 11 -1668 11 -1589 0 -1641 -1 -1677 -19 -92 -47 -101 -80 -102
-363 l0 -228 -185 0 -185 0 0 295 c0 281 -1 295 -19 305 -12 6 -120 10 -280
10 -223 0 -262 -2 -275 -16z m474 -2244 l0 -2160 -195 0 -195 0 0 2160 0 2160
195 0 195 0 0 -2160z m3907 2138 l23 -21 0 -1264 c0 -1250 0 -1263 -20 -1283
-20 -20 -33 -20 -1659 -20 l-1640 0 -20 26 c-21 27 -21 27 -21 1281 l0 1254
25 24 24 25 1632 0 1633 0 23 -22z m-3437 -763 l0 -175 -182 2 -183 3 -3 173
-2 172 185 0 185 0 0 -175z m0 -520 l0 -255 -185 0 -185 0 0 248 c0 137 3 252
7 255 3 4 87 7 185 7 l178 0 0 -255z m0 -525 l0 -170 -185 0 -185 0 0 170 0
170 185 0 185 0 0 -170z"/>
<path d="M2463 4225 c-41 -18 -73 -69 -73 -117 l0 -38 -110 0 c-121 0 -159
-10 -200 -54 -23 -26 -25 -36 -28 -142 l-4 -114 -107 0 c-126 0 -141 -9 -141
-78 l0 -42 -62 0 c-74 0 -104 -13 -135 -59 -21 -31 -23 -45 -23 -174 l0 -139
39 -39 c38 -38 40 -39 110 -39 l71 0 0 -41 c0 -76 6 -79 135 -79 l115 0 0
-100 c0 -118 14 -161 62 -190 28 -17 50 -20 156 -20 l122 0 0 -45 c0 -38 6
-52 34 -83 l34 -37 146 0 146 0 32 33 33 32 5 263 5 262 218 3 217 2 0 -252
c0 -233 2 -255 20 -285 32 -53 64 -63 201 -63 164 0 198 20 215 130 l7 40 116
0 c183 0 211 27 211 205 l0 105 113 0 c75 0 117 4 125 12 7 7 12 34 12 60 l0
48 71 0 c124 0 159 48 159 218 0 118 -11 159 -50 197 -28 26 -39 30 -105 33
l-75 4 0 43 c0 68 -13 75 -141 75 l-109 0 0 105 c0 124 -12 155 -70 185 -32
16 -59 20 -149 20 l-109 0 -7 43 c-9 53 -27 83 -68 107 -46 28 -245 29 -297 2
-65 -35 -70 -56 -70 -334 l0 -248 -220 0 -220 0 0 253 c0 235 -1 254 -20 285
-11 18 -36 40 -55 48 -46 19 -238 19 -282 -1z m255 -805 c2 -663 1 -716 -15
-727 -21 -16 -166 -17 -194 -3 -19 10 -19 29 -19 724 0 392 3 716 7 720 4 3
54 5 112 4 l106 -3 3 -715z m871 707 c14 -17 15 -1405 1 -1427 -12 -19 -161
-27 -202 -11 l-28 11 0 713 c0 393 3 717 7 720 13 14 210 8 222 -6z m-1209
-176 c6 -13 10 -202 10 -544 0 -437 -2 -526 -14 -536 -9 -8 -50 -11 -117 -9
l-104 3 -3 539 c-1 390 1 543 9 552 8 10 39 14 110 14 87 0 99 -2 109 -19z
m1538 11 c10 -7 12 -124 10 -553 l-3 -544 -110 0 -110 0 -3 540 c-1 297 0 546
3 553 5 14 191 17 213 4z m-1868 -552 l0 -251 -72 3 -73 3 -3 248 -2 247 75 0
75 0 0 -250z m2130 0 l0 -251 -72 3 -73 3 -3 248 -2 247 75 0 75 0 0 -250z
m-2380 0 l0 -130 -49 0 c-69 0 -81 19 -81 127 0 45 4 93 10 107 9 24 15 26 65
26 l55 0 0 -130z m1460 0 l0 -130 -217 2 -218 3 -3 128 -3 127 221 0 220 0 0
-130z m1138 118 c8 -8 12 -48 12 -114 0 -122 -7 -134 -81 -134 l-49 0 0 130 0
130 53 0 c29 0 58 -5 65 -12z"/>
</g>
</svg>
