<?xml version="1.0" standalone="no"?>
<!DOCTYPE svg PUBLIC "-//W3C//DTD SVG 20010904//EN"
 "http://www.w3.org/TR/2001/REC-SVG-20010904/DTD/svg10.dtd">
<svg version="1.0" xmlns="http://www.w3.org/2000/svg"
 width="1890.000000pt" height="1417.000000pt" viewBox="0 0 1890.000000 1417.000000"
 preserveAspectRatio="xMidYMid meet">

<g transform="translate(0.000000,1417.000000) scale(0.100000,-0.100000)"
fill="#000000" stroke="none">
<path d="M10737 12135 c-1 -1 -69 -5 -152 -9 -82 -4 -170 -9 -195 -12 -455
-52 -819 -150 -1125 -301 -929 -462 -1370 -1393 -1296 -2733 7 -118 15 -217
18 -220 3 -3 39 31 81 75 41 44 188 199 326 345 139 146 266 281 284 300 30
34 31 38 27 100 -6 71 -21 398 -32 661 -3 91 -3 178 1 192 25 101 177 150 267
86 59 -42 66 -76 80 -369 6 -146 15 -268 18 -273 8 -8 55 40 326 328 576 613
587 623 668 612 119 -16 193 -146 140 -244 -20 -36 -26 -42 -295 -327 -109
-114 -198 -212 -198 -217 0 -6 84 -9 198 -8 306 3 315 2 353 -24 19 -12 44
-42 57 -67 44 -85 9 -195 -73 -231 -39 -17 -75 -19 -458 -19 l-416 -1 -563
-594 c-310 -327 -564 -599 -566 -604 -2 -5 16 -11 40 -14 52 -6 603 0 638 7
14 2 62 7 107 11 46 3 91 8 101 10 11 2 41 6 68 10 27 3 56 7 64 9 8 1 38 6
65 10 113 18 348 77 475 119 1205 403 1767 1464 1625 3063 -8 89 -19 193 -25
230 -5 38 -10 71 -10 75 0 3 -10 5 -22 6 -13 0 -77 4 -143 8 -113 7 -452 14
-458 10z"/>
<path d="M5770 10841 c0 -5 -17 -12 -37 -16 -62 -11 -194 -80 -254 -132 -76
-66 -123 -125 -168 -213 -56 -108 -71 -188 -71 -379 0 -92 -4 -162 -10 -166
-5 -3 -36 1 -69 10 -86 22 -656 22 -745 -1 -219 -55 -395 -220 -474 -443 l-27
-76 -5 -725 -5 -725 -170 -6 c-110 -4 -189 -12 -225 -22 -141 -41 -289 -148
-362 -259 -58 -89 -98 -173 -98 -206 0 -11 -7 -27 -15 -36 -13 -12 -15 -67
-15 -365 0 -223 4 -351 10 -351 5 0 12 -12 16 -27 48 -216 240 -414 464 -480
36 -10 115 -18 225 -22 l170 -6 6 -725 c6 -797 3 -762 69 -893 90 -176 248
-303 438 -351 92 -23 656 -23 744 0 34 8 64 12 69 7 4 -4 9 -91 11 -193 3
-174 5 -190 32 -265 48 -134 148 -265 260 -341 51 -35 153 -81 199 -89 20 -4
37 -11 37 -16 0 -5 155 -9 355 -9 219 0 355 4 355 10 0 5 17 12 38 16 20 3 75
25 122 47 115 55 239 176 293 287 76 154 70 54 76 1350 l6 1165 2430 0 2430 0
5 -1165 c6 -1298 0 -1197 77 -1350 56 -111 179 -232 293 -287 47 -22 102 -44
123 -47 20 -4 37 -11 37 -16 0 -6 136 -10 355 -10 219 0 355 4 355 10 0 5 17
12 38 16 90 16 240 107 320 193 50 55 112 162 139 237 25 73 28 93 31 264 2
102 7 189 11 193 5 5 35 1 69 -7 87 -23 640 -23 739 0 189 43 352 173 443 353
66 129 63 95 69 891 l6 725 170 6 c189 7 235 17 354 75 155 77 298 258 335
427 4 15 11 27 16 27 6 0 10 130 10 355 0 225 -4 355 -10 355 -5 0 -12 12 -16
28 -37 168 -180 349 -335 426 -119 58 -165 68 -354 75 l-170 6 -5 720 c-6 781
-5 760 -63 884 -61 130 -174 247 -299 309 -139 68 -169 72 -520 72 -247 0
-322 -3 -369 -15 -33 -9 -64 -13 -69 -10 -6 4 -10 76 -10 171 0 233 -32 342
-144 491 -76 101 -239 208 -348 228 -21 4 -38 11 -38 16 0 5 -155 9 -355 9
-219 0 -355 -4 -355 -10 0 -5 -17 -12 -37 -16 -21 -3 -76 -25 -123 -47 -115
-56 -239 -177 -294 -287 -76 -154 -70 -53 -76 -1350 l-5 -1165 -2430 0 -2430
0 -6 1165 c-6 1296 0 1195 -75 1350 -54 109 -180 233 -295 288 -46 22 -101 44
-121 47 -21 4 -38 11 -38 16 0 5 -155 9 -355 9 -200 0 -355 -4 -355 -9z m639
-448 c55 -17 108 -62 138 -115 17 -32 18 -142 21 -3168 3 -3491 8 -3200 -65
-3275 -66 -68 -77 -70 -379 -70 -268 0 -271 0 -318 25 -52 26 -86 65 -111 123
-13 32 -15 380 -15 3176 l0 3139 28 53 c32 61 91 108 149 119 21 4 142 8 269
9 191 1 241 -2 283 -16z m6625 7 c63 -14 118 -59 149 -119 l27 -55 0 -3145 0
-3146 -30 -52 c-16 -28 -42 -60 -57 -70 -71 -48 -72 -48 -357 -48 -264 0 -272
1 -318 23 -52 26 -86 66 -111 130 -16 39 -17 264 -17 3161 0 2914 1 3122 17
3172 26 79 79 126 168 149 43 11 482 11 529 0z m-7932 -899 c53 -23 100 -73
122 -129 15 -39 16 -226 16 -2287 0 -2488 5 -2288 -64 -2364 -62 -66 -86 -71
-381 -71 -238 0 -267 2 -306 19 -54 24 -92 62 -118 121 -20 45 -21 53 -21
2292 0 2491 -5 2291 64 2367 61 66 80 70 378 70 240 1 271 -1 310 -18z m9299
0 c49 -22 88 -59 115 -111 18 -34 19 -109 19 -2305 l0 -2270 -22 -40 c-27 -51
-68 -89 -117 -109 -32 -13 -84 -16 -301 -16 -293 0 -318 5 -381 72 -69 74 -64
-125 -64 2363 0 2488 -5 2289 64 2363 62 67 81 70 377 71 243 1 270 -1 310
-18z m-10496 -2416 l0 -440 -119 -3 c-172 -4 -245 28 -296 128 -19 36 -20 59
-20 316 l0 276 26 49 c51 93 115 119 284 116 l125 -2 0 -440z m7970 0 l0 -440
-2430 0 -2430 0 -3 430 c-1 237 0 436 3 443 3 10 495 12 2432 10 l2428 -3 0
-440z m3421 422 c43 -23 82 -64 105 -109 17 -34 19 -62 19 -314 l0 -276 -26
-48 c-51 -94 -119 -122 -289 -118 l-120 3 -3 430 c-1 237 0 436 3 443 8 21
269 12 311 -11z"/>
<path d="M7956 8818 c-11 -13 -96 -104 -190 -203 -281 -295 -284 -299 -292
-350 -13 -89 41 -172 126 -195 78 -21 122 2 242 127 236 245 338 355 338 364
0 5 -8 9 -17 10 -48 2 -138 11 -141 13 -5 6 -32 189 -32 224 0 38 -9 40 -34
10z"/>
</g>
</svg>
